<svg width="28" height="28" viewBox="0 0 28 28" fill="none" xmlns="http://www.w3.org/2000/svg">
<g clip-path="url(#clip0_210_868)">
<path fill-rule="evenodd" clip-rule="evenodd" d="M11.2513 2.6186C13.2134 -0.671926 17.9252 -0.820686 20.091 2.3395L21.2788 4.07246L22.9174 3.26278C23.3804 3.0341 23.9362 3.1135 24.3166 3.46264C24.6968 3.81178 24.8234 4.35882 24.635 4.8395L22.3338 10.7124C22.1008 11.3073 21.4566 11.6306 20.8402 11.4621L14.6702 9.77456C14.1695 9.6376 13.8055 9.20538 13.7558 8.68862C13.706 8.17186 13.9809 7.67814 14.4463 7.44816L15.8184 6.77026L14.6959 5.00832C14.4281 4.588 13.8325 4.54092 13.502 4.91392L11.2568 7.44796C10.829 7.93078 10.1041 8.00878 9.58338 7.62804C9.06268 7.2473 8.9172 6.53286 9.24758 5.97882L11.2513 2.6186ZM7.55036 9.33518C8.1821 9.23962 8.78422 9.63584 8.9464 10.2538L10.57 16.4409C10.7017 16.9431 10.5094 17.4744 10.0868 17.7759C9.6641 18.0773 9.0991 18.0862 8.66722 17.7981L7.39406 16.9487L6.42942 18.8018C6.1993 19.2439 6.45634 19.7832 6.94462 19.883L10.2618 20.5604C10.8938 20.6894 11.3238 21.2782 11.2544 21.9196C11.185 22.5608 10.6391 23.044 9.99406 23.035L6.08216 22.9798C2.25142 22.9258 -0.233315 18.9196 1.42058 15.4639L2.32752 13.5689L0.806988 12.5545C0.377506 12.268 0.168351 11.7469 0.280552 11.243C0.392756 10.739 0.803227 10.3559 1.3137 10.2787L7.55036 9.33518ZM14.3246 22.4402C13.926 21.941 13.9681 21.2214 14.4222 20.772L18.9686 16.2723C19.3376 15.9071 19.8939 15.808 20.3664 16.0233C20.8388 16.2386 21.1288 16.7235 21.0952 17.2416L20.9964 18.7689L23.0836 18.6778C23.5814 18.656 23.92 18.1637 23.7622 17.691L22.6902 14.4796C22.486 13.8677 22.781 13.2009 23.371 12.9403C23.961 12.6798 24.6526 12.911 24.9672 13.4741L26.8754 16.8895C28.744 20.234 26.5168 24.389 22.6972 24.6844L20.6026 24.8466L20.4844 26.6706C20.451 27.1858 20.1042 27.6274 19.6118 27.7822C19.1192 27.937 18.5822 27.773 18.2601 27.3696L14.3246 22.4402Z" fill="white"/>
</g>
<defs>
<clipPath id="clip0_210_868">
<rect width="28" height="28" fill="white"/>
</clipPath>
</defs>
</svg>
