<svg width="28" height="28" viewBox="0 0 28 28" fill="none" xmlns="http://www.w3.org/2000/svg">
<path fill-rule="evenodd" clip-rule="evenodd" d="M12.8159 2.07996H15.2416L18.6758 9.46148H9.36754L12.8159 2.07996ZM6.60818 9.46148L10.0565 2.07996H6.72002L6.69258 2.08034C6.20004 2.09386 5.71762 2.2231 5.28428 2.45762C4.85406 2.69044 4.48422 3.02056 4.20422 3.42156L0.569348 8.45448L0.56374 8.46232C0.348216 8.76688 0.190968 9.10562 0.0969849 9.46148H6.60818ZM0.507494 11.9615H6.55574L10.3988 24.2822L0.729656 12.2577C0.649442 12.1631 0.575308 12.0642 0.507494 11.9615ZM9.17454 11.9615H18.8677L14.2065 26.9666C14.1379 26.9714 14.069 26.9738 14 26.9738C13.952 26.9738 13.904 26.9726 13.8561 26.9702L9.17454 11.9615ZM21.4856 11.9615L17.6941 24.1666L27.2704 12.2577C27.3506 12.1631 27.4248 12.0642 27.4926 11.9615H21.4856ZM27.903 9.46148C27.809 9.10562 27.6518 8.76688 27.4364 8.46232L27.4308 8.45448L23.7958 3.42156C23.5158 3.02054 23.146 2.69044 22.7158 2.45762C22.2824 2.2231 21.8 2.09386 21.3074 2.08034L21.28 2.07996H17.9989L21.433 9.46148H27.903Z" fill="white"/>
</svg>
