<svg width="27" height="22" viewBox="0 0 27 22" fill="none" xmlns="http://www.w3.org/2000/svg">
<path d="M9.88496 10.4167H12.4166C13.809 10.4167 15.1444 10.9698 16.1289 11.9544C17.1135 12.939 17.6666 14.2743 17.6666 15.6667H9.49879L9.49996 16.8334H18.8333V15.6667C18.8296 14.4253 18.471 13.2109 17.7996 12.1667H21.1666C22.2694 12.1664 23.3497 12.4787 24.2822 13.0674C25.2148 13.6561 25.9613 14.4971 26.4353 15.4929C23.6761 19.134 19.209 21.5 14.1666 21.5C10.9455 21.5 8.21663 20.8117 5.99996 19.6042V8.74953C7.41934 8.95285 8.75968 9.52803 9.88496 10.4167ZM3.66663 7.50003C3.95238 7.50007 4.22819 7.60498 4.44173 7.79486C4.65527 7.98475 4.79169 8.2464 4.82513 8.5302L4.83329 8.6667V19.1667C4.83329 19.4761 4.71038 19.7729 4.49158 19.9917C4.27279 20.2104 3.97605 20.3334 3.66663 20.3334H1.33329C1.02387 20.3334 0.727127 20.2104 0.508335 19.9917C0.289542 19.7729 0.166626 19.4761 0.166626 19.1667V8.6667C0.166626 8.35728 0.289542 8.06053 0.508335 7.84174C0.727127 7.62295 1.02387 7.50003 1.33329 7.50003H3.66663ZM14.9203 1.17086L15.3333 1.58503L15.7463 1.17203C16.0167 0.899285 16.3384 0.682643 16.6928 0.534541C17.0472 0.38644 17.4273 0.309796 17.8114 0.30901C18.1955 0.308223 18.576 0.38331 18.931 0.529959C19.286 0.676608 19.6085 0.891932 19.8801 1.16357C20.1516 1.4352 20.3669 1.7578 20.5134 2.11284C20.66 2.46788 20.735 2.84837 20.7341 3.23247C20.7332 3.61656 20.6564 3.9967 20.5082 4.35105C20.36 4.7054 20.1433 5.027 19.8705 5.29736L15.3333 9.83336L10.795 5.29503C10.5222 5.02459 10.3056 4.70293 10.1575 4.34854C10.0094 3.99414 9.93273 3.61398 9.93194 3.22989C9.93115 2.84579 10.0062 2.46532 10.1529 2.11033C10.2995 1.75533 10.5149 1.43279 10.7865 1.16123C11.0581 0.889672 11.3807 0.67444 11.7358 0.527892C12.0908 0.381343 12.4713 0.306364 12.8554 0.307259C13.2395 0.308154 13.6196 0.384905 13.974 0.533107C14.3283 0.681308 14.6499 0.898042 14.9203 1.17086Z" fill="white"/>
</svg>
